  0
SECTION
  2
HEADER
  9
$ACADVER
  1
AC1018
  9
$ACADMAINTVER
 70
     0
  9
$DWGCODEPAGE
  3
ANSI_1252
  9
$INSBASE
 10
0.0
 20
0.0
 30
0.0
  9
$EXTMIN
 10
1.000000000000000E+20
 20
1.000000000000000E+20
 30
1.000000000000000E+20
  9
$EXTMAX
 10
-1.000000000000000E+20
 20
-1.000000000000000E+20
 30
-1.000000000000000E+20
  9
$LIMMIN
 10
0.0
 20
0.0
  9
$LIMMAX
 10
12.0
 20
9.0
  9
$ORTHOMODE
 70
     0
  9
$REGENMODE
 70
     1
  9
$FILLMODE
 70
     1
  9
$QTEXTMODE
 70
     0
  9
$MIRRTEXT
 70
     1
  9
$LTSCALE
 40
1.0
  9
$ATTMODE
 70
     1
  9
$TEXTSIZE
 40
0.2
  9
$TRACEWID
 40
0.05
  9
$TEXTSTYLE
  7
Standard
  9
$CLAYER
  8
0
  9
$CELTYPE
  6
ByLayer
  9
$CECOLOR
 62
   256
  9
$CELTSCALE
 40
1.0
  9
$DISPSILH
 70
     0
  9
$DIMSCALE
 40
1.0
  9
$DIMASZ
 40
0.18
  9
$DIMEXO
 40
0.0625
  9
$DIMDLI
 40
0.38
  9
$DIMRND
 40
0.0
  9
$DIMDLE
 40
0.0
  9
$DIMEXE
 40
0.18
  9
$DIMTP
 40
0.0
  9
$DIMTM
 40
0.0
  9
$DIMTXT
 40
0.18
  9
$DIMCEN
 40
0.09
  9
$DIMTSZ
 40
0.0
  9
$DIMTOL
 70
     0
  9
$DIMLIM
 70
     0
  9
$DIMTIH
 70
     1
  9
$DIMTOH
 70
     1
  9
$DIMSE1
 70
     0
  9
$DIMSE2
 70
     0
  9
$DIMTAD
 70
     0
  9
$DIMZIN
 70
     0
  9
$DIMBLK
  1

  9
$DIMASO
 70
     1
  9
$DIMSHO
 70
     1
  9
$DIMPOST
  1

  9
$DIMAPOST
  1

  9
$DIMALT
 70
     0
  9
$DIMALTD
 70
     2
  9
$DIMALTF
 40
25.4
  9
$DIMLFAC
 40
1.0
  9
$DIMTOFL
 70
     0
  9
$DIMTVP
 40
0.0
  9
$DIMTIX
 70
     0
  9
$DIMSOXD
 70
     0
  9
$DIMSAH
 70
     0
  9
$DIMBLK1
  1

  9
$DIMBLK2
  1

  9
$DIMSTYLE
  2
Standard
  9
$DIMCLRD
 70
     0
  9
$DIMCLRE
 70
     0
  9
$DIMCLRT
 70
     0
  9
$DIMTFAC
 40
1.0
  9
$DIMGAP
 40
0.09
  9
$DIMJUST
 70
     0
  9
$DIMSD1
 70
     0
  9
$DIMSD2
 70
     0
  9
$DIMTOLJ
 70
     1
  9
$DIMTZIN
 70
     0
  9
$DIMALTZ
 70
     0
  9
$DIMALTTZ
 70
     0
  9
$DIMUPT
 70
     0
  9
$DIMDEC
 70
     4
  9
$DIMTDEC
 70
     4
  9
$DIMALTU
 70
     2
  9
$DIMALTTD
 70
     2
  9
$DIMTXSTY
  7
Standard
  9
$DIMAUNIT
 70
     0
  9
$DIMADEC
 70
     0
  9
$DIMALTRND
 40
0.0
  9
$DIMAZIN
 70
     0
  9
$DIMDSEP
 70
    46
  9
$DIMATFIT
 70
     3
  9
$DIMFRAC
 70
     0
  9
$DIMLDRBLK
  1

  9
$DIMLUNIT
 70
     2
  9
$DIMLWD
 70
    -2
  9
$DIMLWE
 70
    -2
  9
$DIMTMOVE
 70
     0
  9
$LUNITS
 70
     2
  9
$LUPREC
 70
     4
  9
$SKETCHINC
 40
0.1
  9
$FILLETRAD
 40
0.5
  9
$AUNITS
 70
     0
  9
$AUPREC
 70
     0
  9
$MENU
  1
.
  9
$ELEVATION
 40
0.0
  9
$PELEVATION
 40
0.0
  9
$THICKNESS
 40
0.0
  9
$LIMCHECK
 70
     0
  9
$CHAMFERA
 40
0.5
  9
$CHAMFERB
 40
0.5
  9
$CHAMFERC
 40
1.0
  9
$CHAMFERD
 40
0.0
  9
$SKPOLY
 70
     0
  9
$TDCREATE
 40
2459868.427941343
  9
$TDUCREATE
 40
2459868.594608009
  9
$TDUPDATE
 40
2459868.427941354
  9
$TDUUPDATE
 40
2459868.594608021
  9
$TDINDWG
 40
0.0000000116
  9
$TDUSRTIMER
 40
0.0000000116
  9
$USRTIMER
 70
     1
  9
$ANGBASE
 50
0.0
  9
$ANGDIR
 70
     0
  9
$PDMODE
 70
     0
  9
$PDSIZE
 40
0.0
  9
$PLINEWID
 40
0.0
  9
$SPLFRAME
 70
     0
  9
$SPLINETYPE
 70
     6
  9
$SPLINESEGS
 70
     8
  9
$HANDSEED
  5
64
  9
$SURFTAB1
 70
     6
  9
$SURFTAB2
 70
     6
  9
$SURFTYPE
 70
     6
  9
$SURFU
 70
     6
  9
$SURFV
 70
     6
  9
$UCSBASE
  2

  9
$UCSNAME
  2

  9
$UCSORG
 10
0.0
 20
0.0
 30
0.0
  9
$UCSXDIR
 10
1.0
 20
0.0
 30
0.0
  9
$UCSYDIR
 10
0.0
 20
1.0
 30
0.0
  9
$UCSORTHOREF
  2

  9
$UCSORTHOVIEW
 70
     0
  9
$UCSORGTOP
 10
0.0
 20
0.0
 30
0.0
  9
$UCSORGBOTTOM
 10
0.0
 20
0.0
 30
0.0
  9
$UCSORGLEFT
 10
0.0
 20
0.0
 30
0.0
  9
$UCSORGRIGHT
 10
0.0
 20
0.0
 30
0.0
  9
$UCSORGFRONT
 10
0.0
 20
0.0
 30
0.0
  9
$UCSORGBACK
 10
0.0
 20
0.0
 30
0.0
  9
$PUCSBASE
  2

  9
$PUCSNAME
  2

  9
$PUCSORG
 10
0.0
 20
0.0
 30
0.0
  9
$PUCSXDIR
 10
1.0
 20
0.0
 30
0.0
  9
$PUCSYDIR
 10
0.0
 20
1.0
 30
0.0
  9
$PUCSORTHOREF
  2

  9
$PUCSORTHOVIEW
 70
     0
  9
$PUCSORGTOP
 10
0.0
 20
0.0
 30
0.0
  9
$PUCSORGBOTTOM
 10
0.0
 20
0.0
 30
0.0
  9
$PUCSORGLEFT
 10
0.0
 20
0.0
 30
0.0
  9
$PUCSORGRIGHT
 10
0.0
 20
0.0
 30
0.0
  9
$PUCSORGFRONT
 10
0.0
 20
0.0
 30
0.0
  9
$PUCSORGBACK
 10
0.0
 20
0.0
 30
0.0
  9
$USERI1
 70
     0
  9
$USERI2
 70
     0
  9
$USERI3
 70
     0
  9
$USERI4
 70
     0
  9
$USERI5
 70
     0
  9
$USERR1
 40
0.0
  9
$USERR2
 40
0.0
  9
$USERR3
 40
0.0
  9
$USERR4
 40
0.0
  9
$USERR5
 40
0.0
  9
$WORLDVIEW
 70
     1
  9
$SHADEDGE
 70
     3
  9
$SHADEDIF
 70
    70
  9
$TILEMODE
 70
     1
  9
$MAXACTVP
 70
    64
  9
$PINSBASE
 10
0.0
 20
0.0
 30
0.0
  9
$PLIMCHECK
 70
     0
  9
$PEXTMIN
 10
1.000000000000000E+20
 20
1.000000000000000E+20
 30
1.000000000000000E+20
  9
$PEXTMAX
 10
-1.000000000000000E+20
 20
-1.000000000000000E+20
 30
-1.000000000000000E+20
  9
$PLIMMIN
 10
0.0
 20
0.0
  9
$PLIMMAX
 10
12.0
 20
9.0
  9
$UNITMODE
 70
     0
  9
$VISRETAIN
 70
     1
  9
$PLINEGEN
 70
     0
  9
$PSLTSCALE
 70
     1
  9
$TREEDEPTH
 70
  3020
  9
$CMLSTYLE
  2
Standard
  9
$CMLJUST
 70
     0
  9
$CMLSCALE
 40
1.0
  9
$PROXYGRAPHICS
 70
     1
  9
$MEASUREMENT
 70
     0
  9
$CELWEIGHT
370
    -1
  9
$ENDCAPS
280
     0
  9
$JOINSTYLE
280
     0
  9
$LWDISPLAY
290
     1
  9
$INSUNITS
 70
     1
  9
$HYPERLINKBASE
  1

  9
$STYLESHEET
  1

  9
$XEDIT
290
     1
  9
$CEPSNTYPE
380
     0
  9
$PSTYLEMODE
290
     1
  9
$FINGERPRINTGUID
  2
{D2AC33D5-6D0E-44B4-AD5A-F51736760C63}
  9
$VERSIONGUID
  2
{FAEB1C32-E019-11D5-929B-00C0DF256EC4}
  9
$EXTNAMES
290
     1
  9
$PSVPSCALE
 40
0.0
  9
$OLESTARTUP
290
     0
  9
$SORTENTS
280
   127
  9
$INDEXCTL
280
     0
  9
$HIDETEXT
280
     1
  9
$XCLIPFRAME
290
     0
  9
$HALOGAP
280
     0
  9
$OBSCOLOR
 70
   257
  9
$OBSLTYPE
280
     0
  9
$INTERSECTIONDISPLAY
280
     0
  9
$INTERSECTIONCOLOR
 70
   257
  9
$DIMASSOC
280
     2
  9
$PROJECTNAME
  1

  0
ENDSEC
  0
SECTION
  2
CLASSES
  0
CLASS
  1
ACDBDICTIONARYWDFLT
  2
AcDbDictionaryWithDefault
  3
ObjectDBX Classes
 90
        0
 91
        3
280
     0
281
     0
  0
CLASS
  1
VISUALSTYLE
  2
AcDbVisualStyle
  3
ObjectDBX Classes
 90
     4095
 91
        3
280
     0
281
     0
  0
ENDSEC
  0
SECTION
  2
TABLES
  0
TABLE
  2
VPORT
  5
8
330
0
100
AcDbSymbolTable
 70
     1
  0
VPORT
  5
29
330
8
100
AcDbSymbolTableRecord
100
AcDbViewportTableRecord
  2
*Active
 70
     0
 10
0.0
 20
0.0
 11
1.0
 21
1.0
 12
0.0
 22
0.0
 13
0.0
 23
0.0
 14
0.5
 24
0.5
 15
0.5
 25
0.5
 16
0.0
 26
0.0
 36
1.0
 17
1000.0
 27
-1000.0
 37
0.0
 40
2000.0
 41
1.0
 42
50.0
 43
0.0
 44
0.0
 50
0.0
 51
0.0
 71
     0
 72
   100
 73
     1
 74
     3
 75
     0
 76
     0
 77
     0
 78
     0
281
     0
 65
     1
110
0.0
120
0.0
130
0.0
111
1.0
121
0.0
131
0.0
112
0.0
122
1.0
132
0.0
 79
     0
146
0.0
  0
ENDTAB
  0
TABLE
  2
LTYPE
  5
5
330
0
100
AcDbSymbolTable
 70
     1
  0
LTYPE
  5
14
330
5
100
AcDbSymbolTableRecord
100
AcDbLinetypeTableRecord
  2
ByBlock
 70
     0
  3

 72
    65
 73
     0
 40
0.0
  0
LTYPE
  5
15
330
5
100
AcDbSymbolTableRecord
100
AcDbLinetypeTableRecord
  2
ByLayer
 70
     0
  3

 72
    65
 73
     0
 40
0.0
  0
LTYPE
  5
16
330
5
100
AcDbSymbolTableRecord
100
AcDbLinetypeTableRecord
  2
Continuous
 70
     0
  3
Solid line
 72
    65
 73
     0
 40
0.0
  0
ENDTAB
  0
TABLE
  2
LAYER
  5
2
330
0
100
AcDbSymbolTable
 70
     4
  0
LAYER
  5
10
330
2
100
AcDbSymbolTableRecord
100
AcDbLayerTableRecord
  2
0
 70
     0
 62
     7
  6
Continuous
370
    -3
390
F
  0
LAYER
  5
3B
330
2
100
AcDbSymbolTableRecord
100
AcDbLayerTableRecord
  2
Background gradient
 70
     4
 62
     7
  6
Continuous
370
    -3
390
F
  0
LAYER
  5
43
330
2
100
AcDbSymbolTableRecord
100
AcDbLayerTableRecord
  2
Base
 70
     0
 62
     7
  6
Continuous
370
    -3
390
F
  0
LAYER
  5
4A
330
2
100
AcDbSymbolTableRecord
100
AcDbLayerTableRecord
  2
Limbs
 70
     0
 62
     7
  6
Continuous
370
    -3
390
F
  0
ENDTAB
  0
TABLE
  2
STYLE
  5
3
330
0
100
AcDbSymbolTable
 70
     1
  0
STYLE
  5
11
330
3
100
AcDbSymbolTableRecord
100
AcDbTextStyleTableRecord
  2
Standard
 70
     0
 40
0.0
 41
1.0
 50
0.0
 71
     0
 42
0.2
  3
txt
  4

  0
ENDTAB
  0
TABLE
  2
VIEW
  5
6
330
0
100
AcDbSymbolTable
 70
     0
  0
ENDTAB
  0
TABLE
  2
UCS
  5
7
330
0
100
AcDbSymbolTable
 70
     0
  0
ENDTAB
  0
TABLE
  2
APPID
  5
9
330
0
100
AcDbSymbolTable
 70
     1
  0
APPID
  5
12
330
9
100
AcDbSymbolTableRecord
100
AcDbRegAppTableRecord
  2
ACAD
 70
     0
  0
ENDTAB
  0
TABLE
  2
DIMSTYLE
  5
A
330
0
100
AcDbSymbolTable
 70
     1
100
AcDbDimStyleTable
  0
DIMSTYLE
105
27
330
A
100
AcDbSymbolTableRecord
100
AcDbDimStyleTableRecord
  2
Standard
 70
     0
340
11
  0
ENDTAB
  0
TABLE
  2
BLOCK_RECORD
  5
1
330
0
100
AcDbSymbolTable
 70
     3
  0
BLOCK_RECORD
  5
1F
330
1
100
AcDbSymbolTableRecord
100
AcDbBlockTableRecord
  2
*Model_Space
340
22
  0
BLOCK_RECORD
  5
1B
330
1
100
AcDbSymbolTableRecord
100
AcDbBlockTableRecord
  2
*Paper_Space
340
1E
  0
BLOCK_RECORD
  5
23
330
1
100
AcDbSymbolTableRecord
100
AcDbBlockTableRecord
  2
*Paper_Space0
340
26
  0
BLOCK_RECORD
  5
4B
330
1
100
AcDbSymbolTableRecord
100
AcDbBlockTableRecord
  2
block 2
340
0
102
{BLKREFS
331
4C
102
}
  0
BLOCK_RECORD
  5
53
330
1
100
AcDbSymbolTableRecord
100
AcDbBlockTableRecord
  2
block 3
340
0
102
{BLKREFS
331
54
102
}
  0
ENDTAB
  0
ENDSEC
  0
SECTION
  2
BLOCKS
  0
BLOCK
  5
20
330
1F
100
AcDbEntity
  8
0
100
AcDbBlockBegin
  2
*Model_Space
 70
     0
 71
     0
 10
0.0
 20
0.0
 30
0.0
  3
*Model_Space
  1

  0
ENDBLK
  5
21
330
1F
100
AcDbEntity
  8
0
100
AcDbBlockEnd
  0
BLOCK
  5
1C
330
1B
100
AcDbEntity
 67
     1
  8
0
100
AcDbBlockBegin
  2
*Paper_Space
 70
     0
 71
     0
 10
0.0
 20
0.0
 30
0.0
  3
*Paper_Space
  1

  0
ENDBLK
  5
1D
330
1B
100
AcDbEntity
 67
     1
  8
0
100
AcDbBlockEnd
  0
BLOCK
  5
24
330
23
100
AcDbEntity
  8
0
100
AcDbBlockBegin
  2
*Paper_Space0
 70
     0
 71
     0
 10
0.0
 20
0.0
 30
0.0
  3
*Paper_Space0
  1

  0
ENDBLK
  5
25
330
23
100
AcDbEntity
  8
0
100
AcDbBlockEnd
  0
BLOCK
  5
4D
330
4B
100
AcDbEntity
  8
0
100
AcDbBlockBegin
  2
block 2
 70
     0
 71
     0
 10
0.0
 20
0.0
 30
0.0
  3
block 2
  1

  0
SPLINE
  5
4F
330
4B
100
AcDbEntity
  8
Limbs
370
     0
100
AcDbSpline
210
0.0
220
0.0
230
1.0
 70
    11
 71
     3
 72
    20
 73
    16
 74
     0
 42
0.0000000001
 43
0.0000000001
 40
0.0
 40
0.0
 40
0.0
 40
0.0
 40
1.0
 40
1.0
 40
1.0
 40
2.0
 40
2.0
 40
2.0
 40
3.0
 40
3.0
 40
3.0
 40
4.0
 40
4.0
 40
4.0
 40
5.0
 40
5.0
 40
5.0
 40
5.0
 10
1347.0
 20
-1999.048828125
 30
0.0
 10
1347.0
 20
-1580.9951171875
 30
0.0
 10
1358.880859375
 20
-1242.0966796875
 30
0.0
 10
1373.5
 20
-1242.0966796875
 30
0.0
 10
1388.119140625
 20
-1242.0966796875
 30
0.0
 10
1400.0
 20
-1580.9951171875
 30
0.0
 10
1400.0
 20
-1999.048828125
 30
0.0
 10
1400.0
 20
-1999.1015625
 30
0.0
 10
1400.0
 20
-1999.0029296875
 30
0.0
 10
1400.0
 20
-2000.0
 30
0.0
 10
1400.0
 20
-2000.0
 30
0.0
 10
1347.0
 20
-2000.0
 30
0.0
 10
1347.0
 20
-2000.0
 30
0.0
 10
1347.0
 20
-1999.0029296875
 30
0.0
 10
1347.0
 20
-1999.1015625
 30
0.0
 10
1347.0
 20
-1999.048828125
 30
0.0
  0
HATCH
  5
50
330
4B
100
AcDbEntity
  8
Limbs
 62
     7
420
 16777215
100
AcDbHatch
 10
0.0
 20
0.0
 30
0.0
210
0.0
220
0.0
230
1.0
  2
SOLID
 70
     1
 71
     0
 91
        1
 92
        1
 93
        1
 72
     4
 94
        3
 73
     0
 74
     1
 95
       20
 96
       16
 40
0.0
 40
0.0
 40
0.0
 40
0.0
 40
1.0
 40
1.0
 40
1.0
 40
2.0
 40
2.0
 40
2.0
 40
3.0
 40
3.0
 40
3.0
 40
4.0
 40
4.0
 40
4.0
 40
5.0
 40
5.0
 40
5.0
 40
5.0
 10
1347.0
 20
-1999.048828125
 10
1347.0
 20
-1580.9951171875
 10
1358.880859375
 20
-1242.0966796875
 10
1373.5
 20
-1242.0966796875
 10
1388.119140625
 20
-1242.0966796875
 10
1400.0
 20
-1580.9951171875
 10
1400.0
 20
-1999.048828125
 10
1400.0
 20
-1999.1015625
 10
1400.0
 20
-1999.0029296875
 10
1400.0
 20
-2000.0
 10
1400.0
 20
-2000.0
 10
1347.0
 20
-2000.0
 10
1347.0
 20
-2000.0
 10
1347.0
 20
-1999.0029296875
 10
1347.0
 20
-1999.1015625
 10
1347.0
 20
-1999.048828125
 97
        0
 75
     0
 76
     1
 98
        0
  0
SPLINE
  5
51
330
4B
100
AcDbEntity
  8
Limbs
370
     0
100
AcDbSpline
210
0.0
220
0.0
230
1.0
 70
    11
 71
     3
 72
    20
 73
    16
 74
     0
 42
0.0000000001
 43
0.0000000001
 40
0.0
 40
0.0
 40
0.0
 40
0.0
 40
1.0
 40
1.0
 40
1.0
 40
2.0
 40
2.0
 40
2.0
 40
3.0
 40
3.0
 40
3.0
 40
4.0
 40
4.0
 40
4.0
 40
5.0
 40
5.0
 40
5.0
 40
5.0
 10
1238.0
 20
-1998.1337890625
 30
0.0
 10
1238.0
 20
-1640.3701171875
 30
0.0
 10
1249.7548828125
 20
-1350.3447265625
 30
0.0
 10
1264.0
 20
-1350.3447265625
 30
0.0
 10
1278.2451171875
 20
-1350.3447265625
 30
0.0
 10
1290.0
 20
-1640.3701171875
 30
0.0
 10
1290.0
 20
-1998.1337890625
 30
0.0
 10
1290.0
 20
-1998.4697265625
 30
0.0
 10
1290.0
 20
-1998.0
 30
0.0
 10
1290.0
 20
-2000.0
 30
0.0
 10
1290.0
 20
-2000.0
 30
0.0
 10
1238.0
 20
-2000.0
 30
0.0
 10
1238.0
 20
-2000.0
 30
0.0
 10
1238.0
 20
-1998.0
 30
0.0
 10
1238.0
 20
-1998.4697265625
 30
0.0
 10
1238.0
 20
-1998.1337890625
 30
0.0
  0
HATCH
  5
52
330
4B
100
AcDbEntity
  8
Limbs
 62
     7
420
 16777215
100
AcDbHatch
 10
0.0
 20
0.0
 30
0.0
210
0.0
220
0.0
230
1.0
  2
SOLID
 70
     1
 71
     0
 91
        1
 92
        1
 93
        1
 72
     4
 94
        3
 73
     0
 74
     1
 95
       20
 96
       16
 40
0.0
 40
0.0
 40
0.0
 40
0.0
 40
1.0
 40
1.0
 40
1.0
 40
2.0
 40
2.0
 40
2.0
 40
3.0
 40
3.0
 40
3.0
 40
4.0
 40
4.0
 40
4.0
 40
5.0
 40
5.0
 40
5.0
 40
5.0
 10
1238.0
 20
-1998.1337890625
 10
1238.0
 20
-1640.3701171875
 10
1249.7548828125
 20
-1350.3447265625
 10
1264.0
 20
-1350.3447265625
 10
1278.2451171875
 20
-1350.3447265625
 10
1290.0
 20
-1640.3701171875
 10
1290.0
 20
-1998.1337890625
 10
1290.0
 20
-1998.4697265625
 10
1290.0
 20
-1998.0
 10
1290.0
 20
-2000.0
 10
1290.0
 20
-2000.0
 10
1238.0
 20
-2000.0
 10
1238.0
 20
-2000.0
 10
1238.0
 20
-1998.0
 10
1238.0
 20
-1998.4697265625
 10
1238.0
 20
-1998.1337890625
 97
        0
 75
     0
 76
     1
 98
        0
  0
ENDBLK
  5
4E
330
4B
100
AcDbEntity
  8
0
100
AcDbBlockEnd
  0
BLOCK
  5
55
330
53
100
AcDbEntity
  8
0
100
AcDbBlockBegin
  2
block 3
 70
     0
 71
     0
 10
0.0
 20
0.0
 30
0.0
  3
block 3
  1

  0
SPLINE
  5
57
330
53
100
AcDbEntity
  8
Limbs
370
     0
100
AcDbSpline
210
0.0
220
0.0
230
1.0
 70
    11
 71
     3
 72
    20
 73
    16
 74
     0
 42
0.0000000001
 43
0.0000000001
 40
0.0
 40
0.0
 40
0.0
 40
0.0
 40
1.0
 40
1.0
 40
1.0
 40
2.0
 40
2.0
 40
2.0
 40
3.0
 40
3.0
 40
3.0
 40
4.0
 40
4.0
 40
4.0
 40
5.0
 40
5.0
 40
5.0
 40
5.0
 10
731.0
 20
-1998.1337890625
 30
0.0
 10
731.0
 20
-1640.3701171875
 30
0.0
 10
719.2451171875
 20
-1350.3447265625
 30
0.0
 10
705.0
 20
-1350.3447265625
 30
0.0
 10
690.7548828125
 20
-1350.3447265625
 30
0.0
 10
679.0
 20
-1640.3701171875
 30
0.0
 10
679.0
 20
-1998.1337890625
 30
0.0
 10
679.0
 20
-1998.4697265625
 30
0.0
 10
679.0
 20
-1998.0
 30
0.0
 10
679.0
 20
-2000.0
 30
0.0
 10
679.0
 20
-2000.0
 30
0.0
 10
731.0
 20
-2000.0
 30
0.0
 10
731.0
 20
-2000.0
 30
0.0
 10
731.0
 20
-1998.0
 30
0.0
 10
731.0
 20
-1998.4697265625
 30
0.0
 10
731.0
 20
-1998.1337890625
 30
0.0
  0
HATCH
  5
58
330
53
100
AcDbEntity
  8
Limbs
 62
     7
420
 16777215
100
AcDbHatch
 10
0.0
 20
0.0
 30
0.0
210
0.0
220
0.0
230
1.0
  2
SOLID
 70
     1
 71
     0
 91
        1
 92
        1
 93
        1
 72
     4
 94
        3
 73
     0
 74
     1
 95
       20
 96
       16
 40
0.0
 40
0.0
 40
0.0
 40
0.0
 40
1.0
 40
1.0
 40
1.0
 40
2.0
 40
2.0
 40
2.0
 40
3.0
 40
3.0
 40
3.0
 40
4.0
 40
4.0
 40
4.0
 40
5.0
 40
5.0
 40
5.0
 40
5.0
 10
731.0
 20
-1998.1337890625
 10
731.0
 20
-1640.3701171875
 10
719.2451171875
 20
-1350.3447265625
 10
705.0
 20
-1350.3447265625
 10
690.7548828125
 20
-1350.3447265625
 10
679.0
 20
-1640.3701171875
 10
679.0
 20
-1998.1337890625
 10
679.0
 20
-1998.4697265625
 10
679.0
 20
-1998.0
 10
679.0
 20
-2000.0
 10
679.0
 20
-2000.0
 10
731.0
 20
-2000.0
 10
731.0
 20
-2000.0
 10
731.0
 20
-1998.0
 10
731.0
 20
-1998.4697265625
 10
731.0
 20
-1998.1337890625
 97
        0
 75
     0
 76
     1
 98
        0
  0
SPLINE
  5
59
330
53
100
AcDbEntity
  8
Limbs
370
     0
100
AcDbSpline
210
0.0
220
0.0
230
1.0
 70
    11
 71
     3
 72
    20
 73
    16
 74
     0
 42
0.0000000001
 43
0.0000000001
 40
0.0
 40
0.0
 40
0.0
 40
0.0
 40
1.0
 40
1.0
 40
1.0
 40
2.0
 40
2.0
 40
2.0
 40
3.0
 40
3.0
 40
3.0
 40
4.0
 40
4.0
 40
4.0
 40
5.0
 40
5.0
 40
5.0
 40
5.0
 10
622.0
 20
-1999.0458984375
 30
0.0
 10
622.0
 20
-1579.8896484375
 30
0.0
 10
610.119140625
 20
-1240.0966796875
 30
0.0
 10
595.5
 20
-1240.0966796875
 30
0.0
 10
580.88134765625
 20
-1240.0966796875
 30
0.0
 10
569.0
 20
-1579.8896484375
 30
0.0
 10
569.0
 20
-1999.0458984375
 30
0.0
 10
569.0
 20
-1999.099609375
 30
0.0
 10
569.0
 20
-1999.0
 30
0.0
 10
569.0
 20
-2000.0
 30
0.0
 10
569.0
 20
-2000.0
 30
0.0
 10
622.0
 20
-2000.0
 30
0.0
 10
622.0
 20
-2000.0
 30
0.0
 10
622.0
 20
-1999.0
 30
0.0
 10
622.0
 20
-1999.099609375
 30
0.0
 10
622.0
 20
-1999.0458984375
 30
0.0
  0
HATCH
  5
5A
330
53
100
AcDbEntity
  8
Limbs
 62
     7
420
 16777215
100
AcDbHatch
 10
0.0
 20
0.0
 30
0.0
210
0.0
220
0.0
230
1.0
  2
SOLID
 70
     1
 71
     0
 91
        1
 92
        1
 93
        1
 72
     4
 94
        3
 73
     0
 74
     1
 95
       20
 96
       16
 40
0.0
 40
0.0
 40
0.0
 40
0.0
 40
1.0
 40
1.0
 40
1.0
 40
2.0
 40
2.0
 40
2.0
 40
3.0
 40
3.0
 40
3.0
 40
4.0
 40
4.0
 40
4.0
 40
5.0
 40
5.0
 40
5.0
 40
5.0
 10
622.0
 20
-1999.0458984375
 10
622.0
 20
-1579.8896484375
 10
610.119140625
 20
-1240.0966796875
 10
595.5
 20
-1240.0966796875
 10
580.88134765625
 20
-1240.0966796875
 10
569.0
 20
-1579.8896484375
 10
569.0
 20
-1999.0458984375
 10
569.0
 20
-1999.099609375
 10
569.0
 20
-1999.0
 10
569.0
 20
-2000.0
 10
569.0
 20
-2000.0
 10
622.0
 20
-2000.0
 10
622.0
 20
-2000.0
 10
622.0
 20
-1999.0
 10
622.0
 20
-1999.099609375
 10
622.0
 20
-1999.0458984375
 97
        0
 75
     0
 76
     1
 98
        0
  0
ENDBLK
  5
56
330
53
100
AcDbEntity
  8
0
100
AcDbBlockEnd
  0
ENDSEC
  0
SECTION
  2
ENTITIES
  0
POLYLINE
  5
3C
330
1F
100
AcDbEntity
  8
Background gradient
 62
    18
420
        0
370
    35
100
AcDb2dPolyline
 66
     1
 10
0.0
 20
0.0
 30
0.0
  0
VERTEX
  5
3D
330
3C
100
AcDbEntity
  8
Background gradient
 62
    18
420
        0
370
    35
100
AcDbVertex
100
AcDb2dVertex
 10
2000.5
 20
-2000.5
 30
0.0
  0
VERTEX
  5
3E
330
3C
100
AcDbEntity
  8
Background gradient
 62
    18
420
        0
370
    35
100
AcDbVertex
100
AcDb2dVertex
 10
0.5
 20
-2000.5
 30
0.0
  0
VERTEX
  5
3F
330
3C
100
AcDbEntity
  8
Background gradient
 62
    18
420
        0
370
    35
100
AcDbVertex
100
AcDb2dVertex
 10
0.5
 20
-0.5
 30
0.0
  0
VERTEX
  5
40
330
3C
100
AcDbEntity
  8
Background gradient
 62
    18
420
        0
370
    35
100
AcDbVertex
100
AcDb2dVertex
 10
2000.5
 20
-0.5
 30
0.0
  0
VERTEX
  5
41
330
3C
100
AcDbEntity
  8
Background gradient
 62
    18
420
        0
370
    35
100
AcDbVertex
100
AcDb2dVertex
 10
2000.5
 20
-2000.5
 30
0.0
  0
SEQEND
  5
42
330
3C
100
AcDbEntity
  8
Background gradient
370
    35
  0
SPLINE
  5
44
330
1F
100
AcDbEntity
  8
Base
 62
     7
420
 16777215
370
    35
100
AcDbSpline
210
0.0
220
0.0
230
1.0
 70
     8
 71
     3
 72
    32
 73
    28
 74
     0
 42
0.0000000001
 43
0.0000000001
 40
0.0
 40
0.0
 40
0.0
 40
0.0
 40
1.0
 40
1.0
 40
1.0
 40
2.0
 40
2.0
 40
2.0
 40
3.0
 40
3.0
 40
3.0
 40
4.0
 40
4.0
 40
4.0
 40
5.0
 40
5.0
 40
5.0
 40
6.0
 40
6.0
 40
6.0
 40
7.0
 40
7.0
 40
7.0
 40
8.0
 40
8.0
 40
8.0
 40
9.0
 40
9.0
 40
9.0
 40
9.0
 10
694.65771484375
 20
-291.3115234375
 30
0.0
 10
681.50439453125
 20
-308.21142578125
 30
0.0
 10
671.04296875
 20
-285.03955078125
 30
0.0
 10
660.3388671875
 20
-281.40771484375
 30
0.0
 10
658.0390625
 20
-280.62744140625
 30
0.0
 10
660.69091796875
 20
-273.93701171875
 30
0.0
 10
662.13427734375
 20
-269.86767578125
 30
0.0
 10
677.1591796875
 20
-227.51806640625
 30
0.0
 10
696.17431640625
 20
-186.36328125
 30
0.0
 10
718.70654296875
 20
-146.39013671875
 30
0.0
 10
726.955078125
 20
-131.75830078125
 30
0.0
 10
735.8095703125
 20
-117.1904296875
 30
0.0
 10
747.63427734375
 20
-104.60546875
 30
0.0
 10
757.1650390625
 20
-94.4599609375
 30
0.0
 10
763.203125
 20
-95.03955078125
 30
0.0
 10
767.44873046875
 20
-106.0283203125
 30
0.0
 10
768.14208984375
 20
-107.82373046875
 30
0.0
 10
768.73681640625
 20
-109.6748046875
 30
0.0
 10
769.2880859375
 20
-111.53857421875
 30
0.0
 10
783.400390625
 20
-159.2080078125
 30
0.0
 10
792.1796875
 20
-208.75244140625
 30
0.0
 10
797.0947265625
 20
-259.56787109375
 30
0.0
 10
797.9716796875
 20
-268.63720703125
 30
0.0
 10
797.908203125
 20
-268.36376953125
 30
0.0
 10
801.060546875
 20
-275.82666015625
 30
0.0
 10
804.18310546875
 20
-283.21923828125
 30
0.0
 10
793.80859375
 20
-285.53759765625
 30
0.0
 10
800.875
 20
-285.330078125
 30
0.0
  0
HATCH
  5
45
330
1F
100
AcDbEntity
  8
Base
 62
     7
420
 16777215
100
AcDbHatch
 10
0.0
 20
0.0
 30
0.0
210
0.0
220
0.0
230
1.0
  2
SOLID
 70
     1
 71
     0
 91
        1
 92
        1
 93
        2
 72
     4
 94
        3
 73
     0
 74
     0
 95
       32
 96
       28
 40
0.0
 40
0.0
 40
0.0
 40
0.0
 40
1.0
 40
1.0
 40
1.0
 40
2.0
 40
2.0
 40
2.0
 40
3.0
 40
3.0
 40
3.0
 40
4.0
 40
4.0
 40
4.0
 40
5.0
 40
5.0
 40
5.0
 40
6.0
 40
6.0
 40
6.0
 40
7.0
 40
7.0
 40
7.0
 40
8.0
 40
8.0
 40
8.0
 40
9.0
 40
9.0
 40
9.0
 40
9.0
 10
694.65771484375
 20
-291.3115234375
 10
681.50439453125
 20
-308.21142578125
 10
671.04296875
 20
-285.03955078125
 10
660.3388671875
 20
-281.40771484375
 10
658.0390625
 20
-280.62744140625
 10
660.69091796875
 20
-273.93701171875
 10
662.13427734375
 20
-269.86767578125
 10
677.1591796875
 20
-227.51806640625
 10
696.17431640625
 20
-186.36328125
 10
718.70654296875
 20
-146.39013671875
 10
726.955078125
 20
-131.75830078125
 10
735.8095703125
 20
-117.1904296875
 10
747.63427734375
 20
-104.60546875
 10
757.1650390625
 20
-94.4599609375
 10
763.203125
 20
-95.03955078125
 10
767.44873046875
 20
-106.0283203125
 10
768.14208984375
 20
-107.82373046875
 10
768.73681640625
 20
-109.6748046875
 10
769.2880859375
 20
-111.53857421875
 10
783.400390625
 20
-159.2080078125
 10
792.1796875
 20
-208.75244140625
 10
797.0947265625
 20
-259.56787109375
 10
797.9716796875
 20
-268.63720703125
 10
797.908203125
 20
-268.36376953125
 10
801.060546875
 20
-275.82666015625
 10
804.18310546875
 20
-283.21923828125
 10
793.80859375
 20
-285.53759765625
 10
800.875
 20
-285.330078125
 72
     1
 10
800.875
 20
-285.330078125
 11
694.65771484375
 21
-291.3115234375
 97
        0
 75
     2
 76
     1
 98
        0
  0
SPLINE
  5
46
330
1F
100
AcDbEntity
  8
Base
 62
     7
420
 16777215
370
    35
100
AcDbSpline
210
0.0
220
0.0
230
1.0
 70
     8
 71
     3
 72
    32
 73
    28
 74
     0
 42
0.0000000001
 43
0.0000000001
 40
0.0
 40
0.0
 40
0.0
 40
0.0
 40
1.0
 40
1.0
 40
1.0
 40
2.0
 40
2.0
 40
2.0
 40
3.0
 40
3.0
 40
3.0
 40
4.0
 40
4.0
 40
4.0
 40
5.0
 40
5.0
 40
5.0
 40
6.0
 40
6.0
 40
6.0
 40
7.0
 40
7.0
 40
7.0
 40
8.0
 40
8.0
 40
8.0
 40
9.0
 40
9.0
 40
9.0
 40
9.0
 10
1290.33984375
 20
-310.3203125
 30
0.0
 10
1293.701171875
 20
-330.228515625
 30
0.0
 10
1314.2978515625
 20
-308.94921875
 30
0.0
 10
1325.5439453125
 20
-307.52734375
 30
0.0
 10
1327.958984375
 20
-307.2216796875
 30
0.0
 10
1328.890625
 20
-299.8798828125
 30
0.0
 10
1329.60546875
 20
-295.4501953125
 30
0.0
 10
1337.048828125
 20
-249.34765625
 30
0.0
 10
1340.376953125
 20
-203.615234375
 30
0.0
 10
1340.015625
 20
-158.3369140625
 30
0.0
 10
1339.8837890625
 20
-141.7626953125
 30
0.0
 10
1339.1826171875
 20
-125.1259765625
 30
0.0
 10
1334.884765625
 20
-109.8720703125
 30
0.0
 10
1331.4208984375
 20
-97.5751953125
 30
0.0
 10
1325.796875
 20
-96.8876953125
 30
0.0
 10
1316.6630859375
 20
-107.130859375
 30
0.0
 10
1315.169921875
 20
-108.8037109375
 30
0.0
 10
1313.7373046875
 20
-110.5546875
 30
0.0
 10
1312.337890625
 20
-112.328125
 30
0.0
 10
1276.517578125
 20
-157.669921875
 30
0.0
 10
1244.498046875
 20
-206.0390625
 30
0.0
 10
1215.271484375
 20
-256.5126953125
 30
0.0
 10
1210.0576171875
 20
-265.521484375
 30
0.0
 10
1210.248046875
 20
-265.2578125
 30
0.0
 10
1203.8056640625
 20
-272.15625
 30
0.0
 10
1197.4248046875
 20
-278.9912109375
 30
0.0
 10
1205.4658203125
 20
-283.5322265625
 30
0.0
 10
1199.3173828125
 20
-281.830078125
 30
0.0
  0
HATCH
  5
47
330
1F
100
AcDbEntity
  8
Base
 62
     7
420
 16777215
100
AcDbHatch
 10
0.0
 20
0.0
 30
0.0
210
0.0
220
0.0
230
1.0
  2
SOLID
 70
     1
 71
     0
 91
        1
 92
        1
 93
        2
 72
     4
 94
        3
 73
     0
 74
     0
 95
       32
 96
       28
 40
0.0
 40
0.0
 40
0.0
 40
0.0
 40
1.0
 40
1.0
 40
1.0
 40
2.0
 40
2.0
 40
2.0
 40
3.0
 40
3.0
 40
3.0
 40
4.0
 40
4.0
 40
4.0
 40
5.0
 40
5.0
 40
5.0
 40
6.0
 40
6.0
 40
6.0
 40
7.0
 40
7.0
 40
7.0
 40
8.0
 40
8.0
 40
8.0
 40
9.0
 40
9.0
 40
9.0
 40
9.0
 10
1290.33984375
 20
-310.3203125
 10
1293.701171875
 20
-330.228515625
 10
1314.2978515625
 20
-308.94921875
 10
1325.5439453125
 20
-307.52734375
 10
1327.958984375
 20
-307.2216796875
 10
1328.890625
 20
-299.8798828125
 10
1329.60546875
 20
-295.4501953125
 10
1337.048828125
 20
-249.34765625
 10
1340.376953125
 20
-203.615234375
 10
1340.015625
 20
-158.3369140625
 10
1339.8837890625
 20
-141.7626953125
 10
1339.1826171875
 20
-125.1259765625
 10
1334.884765625
 20
-109.8720703125
 10
1331.4208984375
 20
-97.5751953125
 10
1325.796875
 20
-96.8876953125
 10
1316.6630859375
 20
-107.130859375
 10
1315.169921875
 20
-108.8037109375
 10
1313.7373046875
 20
-110.5546875
 10
1312.337890625
 20
-112.328125
 10
1276.517578125
 20
-157.669921875
 10
1244.498046875
 20
-206.0390625
 10
1215.271484375
 20
-256.5126953125
 10
1210.0576171875
 20
-265.521484375
 10
1210.248046875
 20
-265.2578125
 10
1203.8056640625
 20
-272.15625
 10
1197.4248046875
 20
-278.9912109375
 10
1205.4658203125
 20
-283.5322265625
 10
1199.3173828125
 20
-281.830078125
 72
     1
 10
1199.3173828125
 20
-281.830078125
 11
1290.33984375
 21
-310.3203125
 97
        0
 75
     2
 76
     1
 98
        0
  0
SPLINE
  5
48
330
1F
100
AcDbEntity
  8
Base
370
     0
100
AcDbSpline
210
0.0
220
0.0
230
1.0
 70
    11
 71
     3
 72
   128
 73
   124
 74
     0
 42
0.0000000001
 43
0.0000000001
 40
0.0
 40
0.0
 40
0.0
 40
0.0
 40
1.0
 40
1.0
 40
1.0
 40
2.0
 40
2.0
 40
2.0
 40
3.0
 40
3.0
 40
3.0
 40
4.0
 40
4.0
 40
4.0
 40
5.0
 40
5.0
 40
5.0
 40
6.0
 40
6.0
 40
6.0
 40
7.0
 40
7.0
 40
7.0
 40
8.0
 40
8.0
 40
8.0
 40
9.0
 40
9.0
 40
9.0
 40
10.0
 40
10.0
 40
10.0
 40
11.0
 40
11.0
 40
11.0
 40
12.0
 40
12.0
 40
12.0
 40
13.0
 40
13.0
 40
13.0
 40
14.0
 40
14.0
 40
14.0
 40
15.0
 40
15.0
 40
15.0
 40
16.0
 40
16.0
 40
16.0
 40
17.0
 40
17.0
 40
17.0
 40
18.0
 40
18.0
 40
18.0
 40
19.0
 40
19.0
 40
19.0
 40
20.0
 40
20.0
 40
20.0
 40
21.0
 40
21.0
 40
21.0
 40
22.0
 40
22.0
 40
22.0
 40
23.0
 40
23.0
 40
23.0
 40
24.0
 40
24.0
 40
24.0
 40
25.0
 40
25.0
 40
25.0
 40
26.0
 40
26.0
 40
26.0
 40
27.0
 40
27.0
 40
27.0
 40
28.0
 40
28.0
 40
28.0
 40
29.0
 40
29.0
 40
29.0
 40
30.0
 40
30.0
 40
30.0
 40
31.0
 40
31.0
 40
31.0
 40
32.0
 40
32.0
 40
32.0
 40
33.0
 40
33.0
 40
33.0
 40
34.0
 40
34.0
 40
34.0
 40
35.0
 40
35.0
 40
35.0
 40
36.0
 40
36.0
 40
36.0
 40
37.0
 40
37.0
 40
37.0
 40
38.0
 40
38.0
 40
38.0
 40
39.0
 40
39.0
 40
39.0
 40
40.0
 40
40.0
 40
40.0
 40
41.0
 40
41.0
 40
41.0
 40
41.0
 10
1597.806640625
 20
-1324.791015625
 30
0.0
 10
1593.5380859375
 20
-1255.5283203125
 30
0.0
 10
1598.9951171875
 20
-1186.23828125
 30
0.0
 10
1593.634765625
 20
-1117.337890625
 30
0.0
 10
1590.3525390625
 20
-1075.15234375
 30
0.0
 10
1593.4560546875
 20
-1033.078125
 30
0.0
 10
1589.9482421875
 20
-991.1875
 30
0.0
 10
1587.15625
 20
-957.84375
 30
0.0
 10
1591.626953125
 20
-924.4052734375
 30
0.0
 10
1587.705078125
 20
-891.43603515625
 30
0.0
 10
1584.4072265625
 20
-863.703125
 30
0.0
 10
1586.998046875
 20
-835.833984375
 30
0.0
 10
1583.25
 20
-808.525390625
 30
0.0
 10
1580.3095703125
 20
-787.09423828125
 30
0.0
 10
1583.396484375
 20
-765.3916015625
 30
0.0
 10
1579.2548828125
 20
-744.7080078125
 30
0.0
 10
1573.9443359375
 20
-718.17724609375
 30
0.0
 10
1579.90234375
 20
-691.09814453125
 30
0.0
 10
1572.166015625
 20
-665.0517578125
 30
0.0
 10
1571.8828125
 20
-664.09814453125
 30
0.0
 10
1571.7041015625
 20
-663.0498046875
 30
0.0
 10
1571.7890625
 20
-662.0703125
 30
0.0
 10
1574.27734375
 20
-633.5654296875
 30
0.0
 10
1569.146484375
 20
-605.28125
 30
0.0
 10
1566.388671875
 20
-577.21875
 30
0.0
 10
1563.884765625
 20
-551.7177734375
 30
0.0
 10
1565.3017578125
 20
-525.9697265625
 30
0.0
 10
1560.236328125
 20
-500.5048828125
 30
0.0
 10
1557.1533203125
 20
-485.0078125
 30
0.0
 10
1557.150390625
 20
-468.736328125
 30
0.0
 10
1555.0556640625
 20
-452.8369140625
 30
0.0
 10
1551.3515625
 20
-424.76025390625
 30
0.0
 10
1548.8984375
 20
-396.53076171875
 30
0.0
 10
1543.9638671875
 20
-368.60009765625
 30
0.0
 10
1541.9267578125
 20
-357.0703125
 30
0.0
 10
1539.865234375
 20
-345.5439453125
 30
0.0
 10
1537.80859375
 20
-334.01806640625
 30
0.0
 10
1535.1064453125
 20
-318.88427734375
 30
0.0
 10
1527.1259765625
 20
-307.80126953125
 30
0.0
 10
1512.607421875
 20
-300.48583984375
 30
0.0
 10
1481.296875
 20
-284.708984375
 30
0.0
 10
1447.669921875
 20
-276.93603515625
 30
0.0
 10
1413.052734375
 20
-272.11181640625
 30
0.0
 10
1403.771484375
 20
-270.81884765625
 30
0.0
 10
1394.5078125
 20
-269.39306640625
 30
0.0
 10
1385.2646484375
 20
-267.86083984375
 30
0.0
 10
1378.0263671875
 20
-266.66259765625
 30
0.0
 10
1226.998046875
 20
-238.9658203125
 30
0.0
 10
1009.0
 20
-254.0
 30
0.0
 10
1009.0
 20
-254.0
 30
0.0
 10
519.0830078125
 20
-288.220703125
 30
0.0
 10
519.0830078125
 20
-288.220703125
 30
0.0
 10
498.94921875
 20
-287.6005859375
 30
0.0
 10
485.45947265625
 20
-296.58642578125
 30
0.0
 10
476.47900390625
 20
-313.35205078125
 30
0.0
 10
459.99755859375
 20
-344.12109375
 30
0.0
 10
453.2978515625
 20
-377.78173828125
 30
0.0
 10
445.65185546875
 20
-411.04296875
 30
0.0
 10
436.87939453125
 20
-449.21044921875
 30
0.0
 10
432.6796875
 20
-488.109375
 30
0.0
 10
427.97900390625
 20
-526.921875
 30
0.0
 10
424.40576171875
 20
-556.42138671875
 30
0.0
 10
422.19140625
 20
-585.984375
 30
0.0
 10
419.638671875
 20
-615.55517578125
 30
0.0
 10
416.2236328125
 20
-655.12841796875
 30
0.0
 10
410.81982421875
 20
-693.484375
 30
0.0
 10
407.5
 20
-733.0
 30
0.0
 10
405.2783203125
 20
-759.421875
 30
0.0
 10
403.765625
 20
-783.7705078125
 30
0.0
 10
403.765625
 20
-811.0
 30
0.0
 10
403.765625
 20
-855.0
 30
0.0
 10
405.142578125
 20
-897.4501953125
 30
0.0
 10
403.41162109375
 20
-939.4970703125
 30
0.0
 10
402.9306640625
 20
-951.16796875
 30
0.0
 10
404.64794921875
 20
-962.732421875
 30
0.0
 10
404.08203125
 20
-974.51171875
 30
0.0
 10
397.79736328125
 20
-1105.1650390625
 30
0.0
 10
400.0048828125
 20
-1235.9599609375
 30
0.0
 10
402.55126953125
 20
-1366.5810546875
 30
0.0
 10
403.75
 20
-1428.017578125
 30
0.0
 10
401.3720703125
 20
-1489.6796875
 30
0.0
 10
406.306640625
 20
-1550.904296875
 30
0.0
 10
408.81396484375
 20
-1582.0068359375
 30
0.0
 10
406.23291015625
 20
-1613.2138671875
 30
0.0
 10
410.3291015625
 20
-1643.8505859375
 30
0.0
 10
413.81884765625
 20
-1669.955078125
 30
0.0
 10
411.50634765625
 20
-1695.9853515625
 30
0.0
 10
414.2314453125
 20
-1721.802734375
 30
0.0
 10
418.1904296875
 20
-1759.30078125
 30
0.0
 10
419.1708984375
 20
-1796.9755859375
 30
0.0
 10
422.81884765625
 20
-1834.41015625
 30
0.0
 10
425.75927734375
 20
-1864.58203125
 30
0.0
 10
426.28564453125
 20
-1895.0146484375
 30
0.0
 10
431.1435546875
 20
-1924.9267578125
 30
0.0
 10
434.50830078125
 20
-1945.6435546875
 30
0.0
 10
436.259765625
 20
-1966.6787109375
 30
0.0
 10
442.0244140625
 20
-1987.048828125
 30
0.0
 10
443.18603515625
 20
-1991.1533203125
 30
0.0
 10
444.1875
 20
-2000.0
 30
0.0
 10
450.0625
 20
-2000.0
 30
0.0
 10
814.39013671875
 20
-2000.0
 30
0.0
 10
1160.671875
 20
-2000.0
 30
0.0
 10
1524.9990234375
 20
-2000.0
 30
0.0
 10
1529.2509765625
 20
-1997.0830078125
 30
0.0
 10
1535.1259765625
 20
-1994.0419921875
 30
0.0
 10
1538.1748046875
 20
-1988.552734375
 30
0.0
 10
1554.9755859375
 20
-1958.3037109375
 30
0.0
 10
1563.2578125
 20
-1926.40625
 30
0.0
 10
1569.21484375
 20
-1893.4658203125
 30
0.0
 10
1574.02734375
 20
-1866.853515625
 30
0.0
 10
1578.7841796875
 20
-1840.0966796875
 30
0.0
 10
1580.875
 20
-1813.2119140625
 30
0.0
 10
1582.32421875
 20
-1794.56640625
 30
0.0
 10
1586.46484375
 20
-1776.15234375
 30
0.0
 10
1586.1826171875
 20
-1757.419921875
 30
0.0
 10
1585.6337890625
 20
-1721.3076171875
 30
0.0
 10
1588.67578125
 20
-1685.1650390625
 30
0.0
 10
1591.642578125
 20
-1649.416015625
 30
0.0
 10
1595.533203125
 20
-1602.515625
 30
0.0
 10
1590.9423828125
 20
-1555.6923828125
 30
0.0
 10
1595.01171875
 20
-1509.1376953125
 30
0.0
 10
1600.384765625
 20
-1447.6630859375
 30
0.0
 10
1601.5771484375
 20
-1385.9912109375
 30
0.0
 10
1597.806640625
 20
-1324.791015625
 30
0.0
  0
SPLINE
  5
49
330
1F
100
AcDbEntity
  8
Base
370
     0
100
AcDbSpline
210
0.0
220
0.0
230
1.0
 70
    11
 71
     3
 72
    20
 73
    16
 74
     0
 42
0.0000000001
 43
0.0000000001
 40
0.0
 40
0.0
 40
0.0
 40
0.0
 40
1.0
 40
1.0
 40
1.0
 40
2.0
 40
2.0
 40
2.0
 40
3.0
 40
3.0
 40
3.0
 40
4.0
 40
4.0
 40
4.0
 40
5.0
 40
5.0
 40
5.0
 40
5.0
 10
422.99658203125
 20
-2000.0
 30
0.0
 10
425.7578125
 20
-1999.8408203125
 30
0.0
 10
1510.0
 20
-2000.0
 30
0.0
 10
1510.0
 20
-2000.0
 30
0.0
 10
1628.0
 20
-1999.0
 30
0.0
 10
1609.0
 20
-541.6708984375
 30
0.0
 10
1532.0
 20
-339.0
 30
0.0
 10
1495.71875
 20
-243.50341796875
 30
0.0
 10
1006.08984375
 20
-263.12744140625
 30
0.0
 10
1006.08984375
 20
-263.12744140625
 30
0.0
 10
1006.08984375
 20
-263.12744140625
 30
0.0
 10
534.7021484375
 20
-261.98095703125
 30
0.0
 10
482.61669921875
 20
-316.78125
 30
0.0
 10
368.2412109375
 20
-437.11865234375
 30
0.0
 10
388.2861328125
 20
-2002.0
 30
0.0
 10
422.99658203125
 20
-2000.0
 30
0.0
  0
INSERT
  5
4C
330
1F
100
AcDbEntity
  8
Limbs
100
AcDbBlockReference
  2
block 2
 10
0.0
 20
0.0
 30
0.0
  0
INSERT
  5
54
330
1F
100
AcDbEntity
  8
Limbs
100
AcDbBlockReference
  2
block 3
 10
0.0
 20
0.0
 30
0.0
  0
SPLINE
  5
5B
330
1F
100
AcDbEntity
  8
Limbs
370
     0
100
AcDbSpline
210
0.0
220
0.0
230
1.0
 70
    11
 71
     3
 72
    17
 73
    13
 74
     0
 42
0.0000000001
 43
0.0000000001
 40
0.0
 40
0.0
 40
0.0
 40
0.0
 40
1.0
 40
1.0
 40
1.0
 40
2.0
 40
2.0
 40
2.0
 40
3.0
 40
3.0
 40
3.0
 40
4.0
 40
4.0
 40
4.0
 40
4.0
 10
1285.0
 20
-530.0
 30
0.0
 10
1285.0
 20
-596.27392578125
 30
0.0
 10
1273.806640625
 20
-650.0
 30
0.0
 10
1260.0
 20
-650.0
 30
0.0
 10
1246.193359375
 20
-650.0
 30
0.0
 10
1235.0
 20
-596.27392578125
 30
0.0
 10
1235.0
 20
-530.0
 30
0.0
 10
1235.0
 20
-463.72607421875
 30
0.0
 10
1246.193359375
 20
-410.0
 30
0.0
 10
1260.0
 20
-410.0
 30
0.0
 10
1273.806640625
 20
-410.0
 30
0.0
 10
1285.0
 20
-463.72607421875
 30
0.0
 10
1285.0
 20
-530.0
 30
0.0
  0
HATCH
  5
5C
330
1F
100
AcDbEntity
  8
Limbs
 62
     7
420
 16777215
100
AcDbHatch
 10
0.0
 20
0.0
 30
0.0
210
0.0
220
0.0
230
1.0
  2
SOLID
 70
     1
 71
     0
 91
        1
 92
        1
 93
        1
 72
     4
 94
        3
 73
     0
 74
     1
 95
       17
 96
       13
 40
0.0
 40
0.0
 40
0.0
 40
0.0
 40
1.0
 40
1.0
 40
1.0
 40
2.0
 40
2.0
 40
2.0
 40
3.0
 40
3.0
 40
3.0
 40
4.0
 40
4.0
 40
4.0
 40
4.0
 10
1285.0
 20
-530.0
 10
1285.0
 20
-596.27392578125
 10
1273.806640625
 20
-650.0
 10
1260.0
 20
-650.0
 10
1246.193359375
 20
-650.0
 10
1235.0
 20
-596.27392578125
 10
1235.0
 20
-530.0
 10
1235.0
 20
-463.72607421875
 10
1246.193359375
 20
-410.0
 10
1260.0
 20
-410.0
 10
1273.806640625
 20
-410.0
 10
1285.0
 20
-463.72607421875
 10
1285.0
 20
-530.0
 97
        0
 75
     0
 76
     1
 98
        0
  0
SPLINE
  5
5D
330
1F
100
AcDbEntity
  8
Limbs
370
     0
100
AcDbSpline
210
0.0
220
0.0
230
1.0
 70
    11
 71
     3
 72
    17
 73
    13
 74
     0
 42
0.0000000001
 43
0.0000000001
 40
0.0
 40
0.0
 40
0.0
 40
0.0
 40
1.0
 40
1.0
 40
1.0
 40
2.0
 40
2.0
 40
2.0
 40
3.0
 40
3.0
 40
3.0
 40
4.0
 40
4.0
 40
4.0
 40
4.0
 10
770.0
 20
-530.0
 30
0.0
 10
770.0
 20
-596.27392578125
 30
0.0
 10
758.80712890625
 20
-650.0
 30
0.0
 10
745.0
 20
-650.0
 30
0.0
 10
731.193359375
 20
-650.0
 30
0.0
 10
720.0
 20
-596.27392578125
 30
0.0
 10
720.0
 20
-530.0
 30
0.0
 10
720.0
 20
-463.7255859375
 30
0.0
 10
731.193359375
 20
-410.0
 30
0.0
 10
745.0
 20
-410.0
 30
0.0
 10
758.80712890625
 20
-410.0
 30
0.0
 10
770.0
 20
-463.7255859375
 30
0.0
 10
770.0
 20
-530.0
 30
0.0
  0
HATCH
  5
5E
330
1F
100
AcDbEntity
  8
Limbs
 62
     7
420
 16777215
100
AcDbHatch
 10
0.0
 20
0.0
 30
0.0
210
0.0
220
0.0
230
1.0
  2
SOLID
 70
     1
 71
     0
 91
        1
 92
        1
 93
        1
 72
     4
 94
        3
 73
     0
 74
     1
 95
       17
 96
       13
 40
0.0
 40
0.0
 40
0.0
 40
0.0
 40
1.0
 40
1.0
 40
1.0
 40
2.0
 40
2.0
 40
2.0
 40
3.0
 40
3.0
 40
3.0
 40
4.0
 40
4.0
 40
4.0
 40
4.0
 10
770.0
 20
-530.0
 10
770.0
 20
-596.27392578125
 10
758.80712890625
 20
-650.0
 10
745.0
 20
-650.0
 10
731.193359375
 20
-650.0
 10
720.0
 20
-596.27392578125
 10
720.0
 20
-530.0
 10
720.0
 20
-463.7255859375
 10
731.193359375
 20
-410.0
 10
745.0
 20
-410.0
 10
758.80712890625
 20
-410.0
 10
770.0
 20
-463.7255859375
 10
770.0
 20
-530.0
 97
        0
 75
     0
 76
     1
 98
        0
  0
SPLINE
  5
5F
330
1F
100
AcDbEntity
  8
Limbs
370
     0
100
AcDbSpline
210
0.0
220
0.0
230
1.0
 70
    11
 71
     3
 72
    17
 73
    13
 74
     0
 42
0.0000000001
 43
0.0000000001
 40
0.0
 40
0.0
 40
0.0
 40
0.0
 40
1.0
 40
1.0
 40
1.0
 40
2.0
 40
2.0
 40
2.0
 40
3.0
 40
3.0
 40
3.0
 40
4.0
 40
4.0
 40
4.0
 40
4.0
 10
1589.326171875
 20
-935.83056640625
 30
0.0
 10
1589.326171875
 20
-953.47509765625
 30
0.0
 10
1323.9296875
 20
-967.77880859375
 30
0.0
 10
996.5458984375
 20
-967.77880859375
 30
0.0
 10
669.162109375
 20
-967.77880859375
 30
0.0
 10
403.765625
 20
-953.47509765625
 30
0.0
 10
403.765625
 20
-935.83056640625
 30
0.0
 10
403.765625
 20
-918.1865234375
 30
0.0
 10
669.162109375
 20
-903.8828125
 30
0.0
 10
996.5458984375
 20
-903.8828125
 30
0.0
 10
1323.9296875
 20
-903.8828125
 30
0.0
 10
1589.326171875
 20
-918.1865234375
 30
0.0
 10
1589.326171875
 20
-935.83056640625
 30
0.0
  0
HATCH
  5
60
330
1F
100
AcDbEntity
  8
Limbs
 62
     7
420
 16777215
100
AcDbHatch
 10
0.0
 20
0.0
 30
0.0
210
0.0
220
0.0
230
1.0
  2
SOLID
 70
     1
 71
     0
 91
        1
 92
        1
 93
        1
 72
     4
 94
        3
 73
     0
 74
     1
 95
       17
 96
       13
 40
0.0
 40
0.0
 40
0.0
 40
0.0
 40
1.0
 40
1.0
 40
1.0
 40
2.0
 40
2.0
 40
2.0
 40
3.0
 40
3.0
 40
3.0
 40
4.0
 40
4.0
 40
4.0
 40
4.0
 10
1589.326171875
 20
-935.83056640625
 10
1589.326171875
 20
-953.47509765625
 10
1323.9296875
 20
-967.77880859375
 10
996.5458984375
 20
-967.77880859375
 10
669.162109375
 20
-967.77880859375
 10
403.765625
 20
-953.47509765625
 10
403.765625
 20
-935.83056640625
 10
403.765625
 20
-918.1865234375
 10
669.162109375
 20
-903.8828125
 10
996.5458984375
 20
-903.8828125
 10
1323.9296875
 20
-903.8828125
 10
1589.326171875
 20
-918.1865234375
 10
1589.326171875
 20
-935.83056640625
 97
        0
 75
     0
 76
     1
 98
        0
  0
SPLINE
  5
61
330
1F
100
AcDbEntity
  8
Limbs
370
     0
100
AcDbSpline
210
0.0
220
0.0
230
1.0
 70
    11
 71
     3
 72
    17
 73
    13
 74
     0
 42
0.0000000001
 43
0.0000000001
 40
0.0
 40
0.0
 40
0.0
 40
0.0
 40
1.0
 40
1.0
 40
1.0
 40
2.0
 40
2.0
 40
2.0
 40
3.0
 40
3.0
 40
3.0
 40
4.0
 40
4.0
 40
4.0
 40
4.0
 10
992.5
 20
-700.0
 30
0.0
 10
992.5
 20
-733.13720703125
 30
0.0
 10
984.6650390625
 20
-760.0
 30
0.0
 10
974.99951171875
 20
-760.0
 30
0.0
 10
965.33447265625
 20
-760.0
 30
0.0
 10
957.5
 20
-733.13720703125
 30
0.0
 10
957.5
 20
-700.0
 30
0.0
 10
957.5
 20
-666.86279296875
 30
0.0
 10
965.33447265625
 20
-640.0
 30
0.0
 10
974.99951171875
 20
-640.0
 30
0.0
 10
984.6650390625
 20
-640.0
 30
0.0
 10
992.5
 20
-666.86279296875
 30
0.0
 10
992.5
 20
-700.0
 30
0.0
  0
HATCH
  5
62
330
1F
100
AcDbEntity
  8
Limbs
 62
     7
420
 16777215
100
AcDbHatch
 10
0.0
 20
0.0
 30
0.0
210
0.0
220
0.0
230
1.0
  2
SOLID
 70
     1
 71
     0
 91
        1
 92
        1
 93
        1
 72
     4
 94
        3
 73
     0
 74
     1
 95
       17
 96
       13
 40
0.0
 40
0.0
 40
0.0
 40
0.0
 40
1.0
 40
1.0
 40
1.0
 40
2.0
 40
2.0
 40
2.0
 40
3.0
 40
3.0
 40
3.0
 40
4.0
 40
4.0
 40
4.0
 40
4.0
 10
992.5
 20
-700.0
 10
992.5
 20
-733.13720703125
 10
984.6650390625
 20
-760.0
 10
974.99951171875
 20
-760.0
 10
965.33447265625
 20
-760.0
 10
957.5
 20
-733.13720703125
 10
957.5
 20
-700.0
 10
957.5
 20
-666.86279296875
 10
965.33447265625
 20
-640.0
 10
974.99951171875
 20
-640.0
 10
984.6650390625
 20
-640.0
 10
992.5
 20
-666.86279296875
 10
992.5
 20
-700.0
 97
        0
 75
     0
 76
     1
 98
        0
  0
ENDSEC
  0
SECTION
  2
OBJECTS
  0
DICTIONARY
  5
C
330
0
100
AcDbDictionary
281
     1
  3
ACAD_GROUP
350
D
  3
ACAD_LAYOUT
350
1A
  3
ACAD_MLINESTYLE
350
17
  3
ACAD_PLOTSETTINGS
350
19
  3
ACAD_PLOTSTYLENAME
350
E
  3
ACAD_TABLESTYLE
350
63
  3
ACAD_VISUALSTYLE
350
2A
  0
DICTIONARY
  5
D
102
{ACAD_REACTORS
330
C
102
}
330
C
100
AcDbDictionary
281
     1
  0
DICTIONARY
  5
1A
102
{ACAD_REACTORS
330
C
102
}
330
C
100
AcDbDictionary
281
     1
  3
Layout1
350
1E
  3
Layout2
350
26
  3
Model
350
22
  0
DICTIONARY
  5
17
102
{ACAD_REACTORS
330
C
102
}
330
C
100
AcDbDictionary
281
     1
  3
Standard
350
18
  0
DICTIONARY
  5
19
102
{ACAD_REACTORS
330
C
102
}
330
C
100
AcDbDictionary
281
     1
  0
ACDBDICTIONARYWDFLT
  5
E
102
{ACAD_REACTORS
330
C
102
}
330
C
100
AcDbDictionary
281
     1
  3
Normal
350
F
100
AcDbDictionaryWithDefault
340
F
  0
DICTIONARY
  5
63
102
{ACAD_REACTORS
330
C
102
}
330
C
100
AcDbDictionary
281
     1
  0
DICTIONARY
  5
2A
102
{ACAD_REACTORS
330
C
102
}
330
C
100
AcDbDictionary
281
     1
  3
2dWireframe
350
2F
  3
3D Hidden
350
31
  3
3dWireframe
350
30
  3
Basic
350
32
  3
Brighten
350
36
  3
ColorChange
350
3A
  3
Conceptual
350
34
  3
Dim
350
35
  3
Facepattern
350
39
  3
Flat
350
2B
  3
FlatWithEdges
350
2C
  3
Gouraud
350
2D
  3
GouraudWithEdges
350
2E
  3
Linepattern
350
38
  3
Realistic
350
33
  3
Thicken
350
37
  0
LAYOUT
  5
1E
102
{ACAD_REACTORS
330
1A
102
}
330
1A
100
AcDbPlotSettings
  1

  2
none_device
  4

  6

 40
0.0
 41
0.0
 42
0.0
 43
0.0
 44
0.0
 45
0.0
 46
0.0
 47
0.0
 48
0.0
 49
0.0
140
0.0
141
0.0
142
1.0
143
1.0
 70
   688
 72
     0
 73
     0
 74
     5
  7

 75
    16
 76
     0
 77
     2
 78
   300
147
1.0
148
0.0
149
0.0
100
AcDbLayout
  1
Layout1
 70
     1
 71
     1
 10
0.0
 20
0.0
 11
12.0
 21
9.0
 12
0.0
 22
0.0
 32
0.0
 14
1.000000000000000E+20
 24
1.000000000000000E+20
 34
1.000000000000000E+20
 15
-1.000000000000000E+20
 25
-1.000000000000000E+20
 35
-1.000000000000000E+20
146
0.0
 13
0.0
 23
0.0
 33
0.0
 16
1.0
 26
0.0
 36
0.0
 17
0.0
 27
1.0
 37
0.0
 76
     0
330
1B
  0
LAYOUT
  5
26
102
{ACAD_REACTORS
330
1A
102
}
330
1A
100
AcDbPlotSettings
  1

  2
none_device
  4

  6

 40
0.0
 41
0.0
 42
0.0
 43
0.0
 44
0.0
 45
0.0
 46
0.0
 47
0.0
 48
0.0
 49
0.0
140
0.0
141
0.0
142
1.0
143
1.0
 70
   688
 72
     0
 73
     0
 74
     5
  7

 75
    16
 76
     0
 77
     2
 78
   300
147
1.0
148
0.0
149
0.0
100
AcDbLayout
  1
Layout2
 70
     1
 71
     2
 10
0.0
 20
0.0
 11
0.0
 21
0.0
 12
0.0
 22
0.0
 32
0.0
 14
0.0
 24
0.0
 34
0.0
 15
0.0
 25
0.0
 35
0.0
146
0.0
 13
0.0
 23
0.0
 33
0.0
 16
1.0
 26
0.0
 36
0.0
 17
0.0
 27
1.0
 37
0.0
 76
     0
330
23
  0
LAYOUT
  5
22
102
{ACAD_REACTORS
330
1A
102
}
330
1A
100
AcDbPlotSettings
  1

  2
none_device
  4

  6

 40
0.0
 41
0.0
 42
0.0
 43
0.0
 44
0.0
 45
0.0
 46
0.0
 47
0.0
 48
0.0
 49
0.0
140
0.0
141
0.0
142
1.0
143
1.0
 70
  1712
 72
     0
 73
     0
 74
     0
  7

 75
     0
 76
     0
 77
     2
 78
   300
147
1.0
148
0.0
149
0.0
100
AcDbLayout
  1
Model
 70
     1
 71
     0
 10
0.0
 20
0.0
 11
12.0
 21
9.0
 12
0.0
 22
0.0
 32
0.0
 14
1.000000000000000E+20
 24
1.000000000000000E+20
 34
1.000000000000000E+20
 15
-1.000000000000000E+20
 25
-1.000000000000000E+20
 35
-1.000000000000000E+20
146
0.0
 13
0.0
 23
0.0
 33
0.0
 16
1.0
 26
0.0
 36
0.0
 17
0.0
 27
1.0
 37
0.0
 76
     0
330
1F
331
29
  0
MLINESTYLE
  5
18
102
{ACAD_REACTORS
330
17
102
}
330
17
100
AcDbMlineStyle
  2
Standard
 70
     0
  3

 62
   256
 51
90.0
 52
90.0
 71
     2
 49
0.5
 62
   256
  6
BYLAYER
 49
-0.5
 62
   256
  6
BYLAYER
  0
ACDBPLACEHOLDER
  5
F
102
{ACAD_REACTORS
330
E
102
}
330
E
  0
VISUALSTYLE
  5
2F
102
{ACAD_REACTORS
330
2A
102
}
330
2A
100
AcDbVisualStyle
  2
2dWireframe
 70
     4
 71
     0
 72
     2
 73
     0
 90
        0
 40
-0.6
 41
-30.0
 62
     5
 63
     7
421
 16777215
 74
     1
 91
        4
 64
     7
 65
   257
 75
     1
175
     1
 42
1.0
 92
        0
 66
   257
 43
1.0
 76
     1
 77
     6
 78
     2
 67
     7
 79
     5
170
     0
171
     0
290
     0
174
     0
 93
        1
 44
0.0
173
     0
291
     0
 45
0.0
1001
ACAD
1000
AcDbSavedByObjectVersion
1070
     0
  0
VISUALSTYLE
  5
31
102
{ACAD_REACTORS
330
2A
102
}
330
2A
100
AcDbVisualStyle
  2
3D Hidden
 70
     6
 71
     1
 72
     2
 73
     2
 90
        0
 40
-0.6
 41
-30.0
 62
     5
 63
     7
421
 16777215
 74
     2
 91
        2
 64
     7
 65
   257
 75
     2
175
     1
 42
40.0
 92
        0
 66
   257
 43
1.0
 76
     1
 77
     6
 78
     2
 67
     7
 79
     3
170
     0
171
     0
290
     0
174
     0
 93
        1
 44
0.0
173
     0
291
     0
 45
0.0
1001
ACAD
1000
AcDbSavedByObjectVersion
1070
     0
  0
VISUALSTYLE
  5
30
102
{ACAD_REACTORS
330
2A
102
}
330
2A
100
AcDbVisualStyle
  2
3dWireframe
 70
     5
 71
     0
 72
     2
 73
     0
 90
        0
 40
-0.6
 41
-30.0
 62
     5
 63
     7
421
 16777215
 74
     1
 91
        4
 64
     7
 65
   257
 75
     1
175
     1
 42
1.0
 92
        0
 66
   257
 43
1.0
 76
     1
 77
     6
 78
     2
 67
     7
 79
     5
170
     0
171
     0
290
     0
174
     0
 93
        1
 44
0.0
173
     0
291
     0
 45
0.0
1001
ACAD
1000
AcDbSavedByObjectVersion
1070
     0
  0
VISUALSTYLE
  5
32
102
{ACAD_REACTORS
330
2A
102
}
330
2A
100
AcDbVisualStyle
  2
Basic
 70
     7
 71
     1
 72
     0
 73
     1
 90
        0
 40
-0.6
 41
-30.0
 62
     5
 63
     7
421
 16777215
 74
     0
 91
        4
 64
     7
 65
   257
 75
     1
175
     1
 42
1.0
 92
        8
 66
     7
 43
1.0
 76
     1
 77
     6
 78
     2
 67
     7
 79
     5
170
     0
171
     0
290
     0
174
     0
 93
        1
 44
0.0
173
     0
291
     1
 45
0.0
1001
ACAD
1000
AcDbSavedByObjectVersion
1070
     0
  0
VISUALSTYLE
  5
36
102
{ACAD_REACTORS
330
2A
102
}
330
2A
100
AcDbVisualStyle
  2
Brighten
 70
    12
 71
     2
 72
     2
 73
     0
 90
        0
 40
-0.6
 41
-30.0
 62
     5
 63
     7
421
 16777215
 74
     1
 91
        4
 64
     7
 65
   257
 75
     1
175
     1
 42
1.0
 92
        8
 66
     7
 43
1.0
 76
     1
 77
     6
 78
     2
 67
     7
 79
     5
170
     0
171
     0
290
     0
174
     0
 93
        1
 44
50.0
173
     0
291
     1
 45
0.0
1001
ACAD
1000
AcDbSavedByObjectVersion
1070
     0
  0
VISUALSTYLE
  5
3A
102
{ACAD_REACTORS
330
2A
102
}
330
2A
100
AcDbVisualStyle
  2
ColorChange
 70
    16
 71
     2
 72
     2
 73
     3
 90
        0
 40
-0.6
 41
-30.0
 62
     5
 63
     8
421
  8421504
 74
     1
 91
        4
 64
     7
 65
   257
 75
     1
175
     1
 42
1.0
 92
        8
 66
     8
424
  8421504
 43
1.0
 76
     1
 77
     6
 78
     2
 67
     7
 79
     5
170
     0
171
     0
290
     0
174
     0
 93
        1
 44
0.0
173
     0
291
     1
 45
0.0
1001
ACAD
1000
AcDbSavedByObjectVersion
1070
     0
  0
VISUALSTYLE
  5
34
102
{ACAD_REACTORS
330
2A
102
}
330
2A
100
AcDbVisualStyle
  2
Conceptual
 70
     9
 71
     3
 72
     2
 73
     0
 90
        0
 40
-0.6
 41
-30.0
 62
     5
 63
     7
421
 16777215
 74
     2
 91
        2
 64
     7
 65
   257
 75
     1
175
     1
 42
40.0
 92
        8
 66
     7
 43
1.0
 76
     1
 77
     6
 78
     2
 67
     7
 79
     3
170
     0
171
     0
290
     0
174
     0
 93
        1
 44
0.0
173
     0
291
     0
 45
0.0
1001
ACAD
1000
AcDbSavedByObjectVersion
1070
     0
  0
VISUALSTYLE
  5
35
102
{ACAD_REACTORS
330
2A
102
}
330
2A
100
AcDbVisualStyle
  2
Dim
 70
    11
 71
     2
 72
     2
 73
     0
 90
        0
 40
-0.6
 41
-30.0
 62
     5
 63
     7
421
 16777215
 74
     1
 91
        4
 64
     7
 65
   257
 75
     1
175
     1
 42
1.0
 92
        8
 66
     7
 43
1.0
 76
     1
 77
     6
 78
     2
 67
     7
 79
     5
170
     0
171
     0
290
     0
174
     0
 93
        1
 44
-50.0
173
     0
291
     1
 45
0.0
1001
ACAD
1000
AcDbSavedByObjectVersion
1070
     0
  0
VISUALSTYLE
  5
39
102
{ACAD_REACTORS
330
2A
102
}
330
2A
100
AcDbVisualStyle
  2
Facepattern
 70
    15
 71
     2
 72
     2
 73
     0
 90
        0
 40
-0.6
 41
-30.0
 62
     5
 63
     7
421
 16777215
 74
     1
 91
        4
 64
     7
 65
   257
 75
     1
175
     1
 42
1.0
 92
        8
 66
     7
 43
1.0
 76
     1
 77
     6
 78
     2
 67
     7
 79
     5
170
     0
171
     0
290
     0
174
     0
 93
        1
 44
0.0
173
     0
291
     1
 45
0.0
1001
ACAD
1000
AcDbSavedByObjectVersion
1070
     0
  0
VISUALSTYLE
  5
2B
102
{ACAD_REACTORS
330
2A
102
}
330
2A
100
AcDbVisualStyle
  2
Flat
 70
     0
 71
     2
 72
     1
 73
     1
 90
        2
 40
-0.6
 41
30.0
 62
     5
 63
     7
421
 16777215
 74
     0
 91
        4
 64
     7
 65
   257
 75
     1
175
     1
 42
1.0
 92
        8
 66
     7
 43
1.0
 76
     1
 77
     6
 78
     2
 67
     7
 79
     5
170
     0
171
     0
290
     0
174
     0
 93
       13
 44
0.0
173
     0
291
     1
 45
0.0
1001
ACAD
1000
AcDbSavedByObjectVersion
1070
     0
  0
VISUALSTYLE
  5
2C
102
{ACAD_REACTORS
330
2A
102
}
330
2A
100
AcDbVisualStyle
  2
FlatWithEdges
 70
     1
 71
     2
 72
     1
 73
     1
 90
        2
 40
-0.6
 41
30.0
 62
     5
 63
     7
421
 16777215
 74
     1
 91
        4
 64
     7
 65
   257
 75
     1
175
     1
 42
1.0
 92
        0
 66
   257
 43
1.0
 76
     1
 77
     6
 78
     2
 67
     7
 79
     5
170
     0
171
     0
290
     0
174
     0
 93
       13
 44
0.0
173
     0
291
     1
 45
0.0
1001
ACAD
1000
AcDbSavedByObjectVersion
1070
     0
  0
VISUALSTYLE
  5
2D
102
{ACAD_REACTORS
330
2A
102
}
330
2A
100
AcDbVisualStyle
  2
Gouraud
 70
     2
 71
     2
 72
     2
 73
     1
 90
        2
 40
-0.6
 41
30.0
 62
     5
 63
     7
421
 16777215
 74
     0
 91
        4
 64
     7
 65
   257
 75
     1
175
     1
 42
1.0
 92
        0
 66
     7
 43
1.0
 76
     1
 77
     6
 78
     2
 67
     7
 79
     5
170
     0
171
     0
290
     0
174
     0
 93
       13
 44
0.0
173
     0
291
     1
 45
0.0
1001
ACAD
1000
AcDbSavedByObjectVersion
1070
     0
  0
VISUALSTYLE
  5
2E
102
{ACAD_REACTORS
330
2A
102
}
330
2A
100
AcDbVisualStyle
  2
GouraudWithEdges
 70
     3
 71
     2
 72
     2
 73
     1
 90
        2
 40
-0.6
 41
30.0
 62
     5
 63
     7
421
 16777215
 74
     1
 91
        4
 64
     7
 65
   257
 75
     1
175
     1
 42
1.0
 92
        0
 66
   257
 43
1.0
 76
     1
 77
     6
 78
     2
 67
     7
 79
     5
170
     0
171
     0
290
     0
174
     0
 93
       13
 44
0.0
173
     0
291
     1
 45
0.0
1001
ACAD
1000
AcDbSavedByObjectVersion
1070
     0
  0
VISUALSTYLE
  5
38
102
{ACAD_REACTORS
330
2A
102
}
330
2A
100
AcDbVisualStyle
  2
Linepattern
 70
    14
 71
     2
 72
     2
 73
     0
 90
        0
 40
-0.6
 41
-30.0
 62
     5
 63
     7
421
 16777215
 74
     1
 91
        4
 64
     7
 65
   257
 75
     7
175
     7
 42
1.0
 92
        8
 66
     7
 43
1.0
 76
     1
 77
     6
 78
     2
 67
     7
 79
     5
170
     0
171
     0
290
     0
174
     0
 93
        1
 44
0.0
173
     0
291
     1
 45
0.0
1001
ACAD
1000
AcDbSavedByObjectVersion
1070
     0
  0
VISUALSTYLE
  5
33
102
{ACAD_REACTORS
330
2A
102
}
330
2A
100
AcDbVisualStyle
  2
Realistic
 70
     8
 71
     2
 72
     2
 73
     0
 90
        0
 40
-0.6
 41
-30.0
 62
     5
 63
     7
421
 16777215
 74
     1
 91
        0
 64
     7
 65
   257
 75
     1
175
     1
 42
1.0
 92
        8
 66
     8
424
  7895160
 43
1.0
 76
     1
 77
     6
 78
     2
 67
     7
 79
     5
170
     0
171
     0
290
     0
174
     0
 93
       13
 44
0.0
173
     0
291
     0
 45
0.0
1001
ACAD
1000
AcDbSavedByObjectVersion
1070
     0
  0
VISUALSTYLE
  5
37
102
{ACAD_REACTORS
330
2A
102
}
330
2A
100
AcDbVisualStyle
  2
Thicken
 70
    13
 71
     2
 72
     2
 73
     0
 90
        0
 40
-0.6
 41
-30.0
 62
     5
 63
     7
421
 16777215
 74
     1
 91
        4
 64
     7
 65
   257
 75
     1
175
     1
 42
1.0
 92
       12
 66
     7
 43
1.0
 76
     1
 77
     6
 78
     2
 67
     7
 79
     5
170
     0
171
     0
290
     0
174
     0
 93
        1
 44
0.0
173
     0
291
     1
 45
0.0
1001
ACAD
1000
AcDbSavedByObjectVersion
1070
     0
  0
ENDSEC
  0
EOF
