<?xml version="1.0" encoding="utf-8"?>
<!-- Generator: Adobe Illustrator 16.0.0, SVG Export Plug-In . SVG Version: 6.00 Build 0)  -->
<!DOCTYPE svg PUBLIC "-//W3C//DTD SVG 1.0//EN" "http://www.w3.org/TR/2001/REC-SVG-20010904/DTD/svg10.dtd">
<svg version="1.0" id="Layer_1" xmlns="http://www.w3.org/2000/svg" xmlns:xlink="http://www.w3.org/1999/xlink" x="0px" y="0px"
	 width="1000px" height="1000px" viewBox="0 0 1000 1000" enable-background="new 0 0 1000 1000" xml:space="preserve">
<g id="Left_leg">
	<path fill-rule="evenodd" clip-rule="evenodd" d="M281.233,1000c-2.05-50.207-4.265-100.274,5.596-150.201
		c9.249-46.811,16.211-94.068,24.427-141.09c0.986-5.652,2.88-11.378,5.523-16.453c3.788-7.256,9.648-13.025,18.71-9.906
		c9.116,3.139,9.991,11.049,8.429,19.301c-3.309,17.535-7.194,34.973-10.153,52.568c-6.553,39.027-12.962,78.086-18.782,117.229
		c-1.47,9.874-2.478,18.956-2.977,29.007c-0.947,18.94-0.686,35.886-1.042,57.961c-0.224,13.849,0.328,27.725,0.56,41.585
		C301.431,1000,291.332,1000,281.233,1000z"/>
	<path fill-rule="evenodd" clip-rule="evenodd" d="M349.167,1000c0,0,0.933-15.895,1.52-23.484
		c2.672-34.352,6.618-68.629,10.951-102.823c2.338-18.435,6.416-36.65,9.64-54.979c1.632-9.309,4.351-18.752,15.893-17.729
		c11.123,0.989,13.862,10.574,13.32,19.991c-0.683,11.958-2.707,23.845-4.287,35.745c-5.349,40.315-10.499,80.657-16.353,120.898
		c-1.116,7.673-3.017,22.381-3.017,22.381H349.167z"/>
</g>
<g id="Right_leg_1_">
	<path fill-rule="evenodd" clip-rule="evenodd" d="M647.071,1000c-0.475-13.926-0.974-27.856-1.415-41.787
		c-2.178-68.635-4.393-137.268-6.414-205.906c-0.173-5.757-0.55-12.349,1.934-17.104c2.49-4.772,8.453-10.656,12.885-10.656
		c4.438,0.004,9.618,6.121,13.034,10.643c2.025,2.686,1.621,7.453,1.726,11.299c1.652,60.126,3.032,120.256,4.86,180.374
		c0.747,24.39,2.426,48.757,3.683,73.138C667.265,1000,657.17,1000,647.071,1000z"/>
	<path fill-rule="evenodd" clip-rule="evenodd" d="M565.515,1000c-8.746-52.343-17.569-104.669-26.134-157.043
		c-0.787-4.808-1.101-10.257,0.373-14.752c3.233-9.884,14.25-12.48,21.277-4.839c4,4.351,7.501,10.366,8.479,16.102
		c9.108,53.45,17.613,107.007,26.297,160.532C585.708,1000,575.613,1000,565.515,1000z"/>
</g>
<path id="Left_eye" fill-rule="evenodd" clip-rule="evenodd" d="M371.181,375.98c-4.324,27.576-8.311,55.213-13.162,82.692
	c-1.639,9.29-2.025,15.5,9.758,17.297c7.837,1.2,13.698,6.86,11.738,15.812c-1.962,8.978-9.272,10.586-17.341,9.598
	c-19.261-2.347-38.516-4.681-57.753-7.19c-8.644-1.129-16.352-4.052-16.398-14.559c-0.037-8.046,7.945-12.665,19.314-11.922
	c17.655,1.156,17.881,1.191,20.9-17.165c3.836-23.295,7.244-46.661,10.85-69.996c0.477-3.067,0.758-6.192,1.598-9.163
	c2.435-8.67,6.188-17.152,17.016-15.39C368.194,357.699,369.761,366.704,371.181,375.98z"/>
<path id="Right_eye" fill-rule="evenodd" clip-rule="evenodd" d="M670.883,521.066c2.707,1.401,7.321,2.324,9.224,5.102
	c3.137,4.588,6.969,10.982,5.862,15.473c-0.879,3.596-9.308,8.49-13.263,7.634c-16.237-3.528-32.304-8.345-47.822-14.286
	c-3.928-1.504-8.319-9.436-7.541-13.452c0.788-4.065,7.477-9.321,12.015-9.782c7.19-0.734,10.359-2.892,11.418-9.822
	c3.114-20.263,6.53-40.478,9.869-60.706c1.131-6.869,0.773-14.656,4.049-20.312c2.953-5.084,10.541-11.377,15.01-10.635
	c4.748,0.787,8.971,8.824,11.955,14.471c1.567,2.962,0.267,7.616-0.204,11.452C678.028,464.253,674.481,492.291,670.883,521.066z"/>
<path id="Nose" fill-rule="evenodd" clip-rule="evenodd" d="M473.867,505.329c2.382-12.16,4.294-24.442,7.311-36.439
	c2.048-8.152,7.376-14.528,16.82-12.116c9.525,2.435,10.335,10.384,8.844,18.756c-1.972,11.07-4.043,22.122-5.875,33.209
	c-1.33,8.024-4.898,13.052-13.963,11.579C478.583,518.952,473.437,514.791,473.867,505.329z"/>
<circle id="Left_ear_dot_1_" fill-rule="evenodd" clip-rule="evenodd" cx="393.158" cy="201.811" r="16.953"/>
<circle id="Right_ear_dot" fill-rule="evenodd" clip-rule="evenodd" cx="707.798" cy="221.734" r="16.518"/>
<path id="Body_outline" fill-rule="evenodd" clip-rule="evenodd" d="M0,0h1000v1000c0,0-245.106,0-259.087,0
	c-1.088-63.61,0.781-126.895,0.837-190.5c0.023-29.782,2-60.75,2.312-89.646c0.812-9.08-17.839-11.576-27.508-12.644
	c-40.402-4.46-80.665-10.147-120.934-15.706c-15.68-2.166-31.349-4.672-46.835-7.924c-91.202-19.164-184.776-15.227-276.569-28.617
	c-15.273-2.223-30.711-3.467-46.121-4.525c-2.536-0.176-8.761-0.271-10.428,4.729c-2.797,13.281-3.369,22.67-3.833,34.333
	c-1.863,46.525-4.804,93.27-5.854,139.834c-0.811,35.617-2.63,71.227-2.762,106.845c-0.083,21.27,2.222,42.548,3.45,63.821H0 M0,0
	 M226.864,234.85c0,5.542-0.004,11.18,0,16.818c0.042,71.385,0.914,142.783-0.173,214.146c-0.706,46.517-4.236,92.989-6.585,139.474
	c-0.336,6.645,1.092,11.074,8.912,12.129c25.759,3.477,51.427,7.607,77.177,11.149c74.184,10.204,149.684,6.474,223.47,21.27
	c30.33,6.082,60.837,11.386,91.388,16.251c35.175,5.594,70.088,14.365,106.246,10.178c19.224-2.224,19.192-2.057,20.634-21.459
	c3.7-49.908,28.701-263.993,37.415-321.139c0.879-5.748,5.024-22.026,5.403-27.666c3.25-18.25-10.599-17.717-22.379-18.486
	c-35.976-2.351-71.785-7.08-107.725-10.121c-71.106-6.029-142.189-12.507-213.399-17.002
	C374.065,255.777,301.503,246.966,226.864,234.85z M755.565,257.113c-13.013-32.445-22.766-63.598-43.473-92.685
	c-19.492,27.448-37.849,53.301-57.637,81.163C689.669,249.603,721.388,253.219,755.565,257.113z M396.739,143.079
	c-15.058,27.743-38.542,47.558-51.678,76.966c29.219,4.351,55.505,8.266,83.118,12.375
	C424.701,198.648,415.104,170.883,396.739,143.079z"/>
</svg>
